<svg width="44" height="44" viewBox="0 0 44 44" fill="none" xmlns="http://www.w3.org/2000/svg">
<path d="M25.002 9.44555L25.0619 16.0336C25.0687 16.7892 25.9694 17.178 26.4959 16.6533L28.59 14.5658C32.5333 18.5217 32.591 24.8736 28.7187 28.7337C27.7945 29.6549 26.715 30.3736 25.5623 30.8317C24.9624 31.0722 24.6138 31.6818 24.6196 32.3194C24.6306 33.5237 25.8657 34.3416 26.9712 33.8829C28.4766 33.2639 29.8847 32.3368 31.1014 31.1239C36.2723 25.9695 36.1955 17.516 30.9297 12.2335L33.0238 10.146C33.5503 9.62125 33.1643 8.71932 32.4207 8.722L25.8328 8.64118C25.3723 8.62373 24.9979 8.9969 25.002 9.44555ZM14.5514 28.5599C10.608 24.604 10.5503 18.252 14.4226 14.392C15.3468 13.4707 16.4263 12.7521 17.579 12.294C18.1789 12.0534 18.5275 11.4438 18.5217 10.8063C18.5108 9.60202 17.2756 8.78411 16.1701 9.24276C14.6647 9.86177 13.2566 10.7889 12.0399 12.0017C6.86902 17.1562 6.94584 25.6097 12.2116 30.8922L10.1175 32.9797C9.59104 33.5044 9.97699 34.4064 10.7207 34.4037L17.3085 34.4845C17.7807 34.4903 18.1434 34.1288 18.1391 33.6565L18.0792 27.0685C18.0726 26.3365 17.1719 25.9476 16.6454 26.4724L14.5514 28.5599Z" fill="#E8F9FF" fill-opacity="0.4"/>
</svg>
